HIERARCHY
ROOT hips
{
  OFFSET 0 11.86390953 0.3628582958
  CHANNELS 6 Xposition Yposition Zposition Yrotation Xrotation Zrotation
  JOINT spine
  {
    OFFSET 0 0.05383551117999996 0
    CHANNELS 3 Yrotation Xrotation Zrotation
    JOINT chest
    {
      OFFSET 0 0.6394558760401424 0
      CHANNELS 3 Yrotation Xrotation Zrotation
      JOINT neck
      {
        OFFSET 0 2.720089088562982 0
        CHANNELS 3 Yrotation Xrotation Zrotation
        JOINT head
        {
          OFFSET 0 0.37880844870545777 0
          CHANNELS 3 Yrotation Xrotation Zrotation
          JOINT rightEye
          {
            OFFSET -0.42867780714 0.7547055649100001 0.7381831347
            CHANNELS 3 Yrotation Xrotation Zrotation
            End Site
            {
              OFFSET -0.42867780714 0.7547055649100001 0.7381831347
            }
          }
          JOINT leftEye
          {
            OFFSET 0.428676479 0.7547055559999993 0.7381844503
            CHANNELS 3 Yrotation Xrotation Zrotation
            End Site
            {
              OFFSET 0.428676479 0.7547055559999993 0.7381844503
            }
          }
          JOINT jaw
          {
            OFFSET -0.18933892286100001 1.5626303011000007 1.137441874206
            CHANNELS 3 Yrotation Xrotation Zrotation
            End Site
            {
              OFFSET -0.18933892286100001 1.5626303011000007 1.137441874206
            }
          }
        }
      }
      JOINT rightShoulder
      {
        OFFSET -0.6795351508 2.0665205 0
        CHANNELS 3 Yrotation Xrotation Zrotation
        JOINT rightUpperArm
        {
          OFFSET -0.7287400483531672 0 0
          CHANNELS 3 Yrotation Xrotation Zrotation
          JOINT rightLowerArm
          {
            OFFSET -1.9872982039174532 0 0
            CHANNELS 3 Yrotation Xrotation Zrotation
            JOINT rightHand
            {
              OFFSET -2.6451847532219275 0 0
              CHANNELS 3 Yrotation Xrotation Zrotation
              JOINT rightLittleProximal
              {
                OFFSET -0.8008804099999995 -0.09592044000000044 -0.26183688629999996
                CHANNELS 3 Yrotation Xrotation Zrotation
                JOINT rightLittleIntermediate
                {
                  OFFSET -0.2473955153999997 -0.02541697026000067 0.002370178700999967
                  CHANNELS 3 Yrotation Xrotation Zrotation
                  JOINT rightLittleDistal
                  {
                    OFFSET -0.163687229200001 -0.015790700860001117 -0.0004274845300000635
                    CHANNELS 3 Yrotation Xrotation Zrotation
                    End Site
                    {
                      OFFSET -0.163687229200001 -0.015790700860001117 -0.0004274845300000635
                    }
                  }
                }
              }
              JOINT rightRingProximal
              {
                OFFSET -0.8393382799999985 -0.06223833561000025 -0.09213143500000005
                CHANNELS 3 Yrotation Xrotation Zrotation
                JOINT rightRingIntermediate
                {
                  OFFSET -0.3284497260000011 -0.03264224524000103 0.009408593183000052
                  CHANNELS 3 Yrotation Xrotation Zrotation
                  JOINT rightRingDistal
                  {
                    OFFSET -0.19447660429999902 -0.021730899850000318 0.003074347969000052
                    CHANNELS 3 Yrotation Xrotation Zrotation
                    End Site
                    {
                      OFFSET -0.19447660429999902 -0.021730899850000318 0.003074347969000052
                    }
                  }
                }
              }
              JOINT rightMiddleProximal
              {
                OFFSET -0.8473005199999989 -0.06735503500000095 0.10541820299999995
                CHANNELS 3 Yrotation Xrotation Zrotation
                JOINT rightMiddleIntermediate
                {
                  OFFSET -0.3450455799999995 -0.02481901642000084 0.019012570390000032
                  CHANNELS 3 Yrotation Xrotation Zrotation
                  JOINT rightMiddleDistal
                  {
                    OFFSET -0.23542332000000088 -0.025003910029999243 0.0075583457949999905
                    CHANNELS 3 Yrotation Xrotation Zrotation
                    End Site
                    {
                      OFFSET -0.23542332000000088 -0.025003910029999243 0.0075583457949999905
                    }
                  }
                }
              }
              JOINT rightIndexProximal
              {
                OFFSET -0.8008568281999987 -0.09897839600000169 0.29462796
                CHANNELS 3 Yrotation Xrotation Zrotation
                JOINT rightIndexIntermediate
                {
                  OFFSET -0.30524754480000016 -0.024634122809999992 0.02743375304999998
                  CHANNELS 3 Yrotation Xrotation Zrotation
                  JOINT rightIndexDistal
                  {
                    OFFSET -0.23067378950000017 -0.016876459159999913 0.008484125099999983
                    CHANNELS 3 Yrotation Xrotation Zrotation
                    End Site
                    {
                      OFFSET -0.23067378950000017 -0.016876459159999913 0.008484125099999983
                    }
                  }
                }
              }
              JOINT rightThumbProximal
              {
                OFFSET -0.25574064999999935 -0.12833189930000155 0.22385698609999993
                CHANNELS 3 Yrotation Xrotation Zrotation
                JOINT rightThumbIntermediate
                {
                  OFFSET -0.22791743260000086 -0.07103586192999978 0.27385039
                  CHANNELS 3 Yrotation Xrotation Zrotation
                  JOINT rightThumbDistal
                  {
                    OFFSET -0.13610267659999975 -0.03369390969999997 0.14246511509999996
                    CHANNELS 3 Yrotation Xrotation Zrotation
                    End Site
                    {
                      OFFSET -0.13610267659999975 -0.03369390969999997 0.14246511509999996
                    }
                  }
                }
              }
            }
          }
        }
      }
      JOINT leftShoulder
      {
        OFFSET 0.6795338396 2.0665205 0
        CHANNELS 3 Yrotation Xrotation Zrotation
        JOINT leftUpperArm
        {
          OFFSET 0.7287383950230443 0 0
          CHANNELS 3 Yrotation Xrotation Zrotation
          JOINT leftLowerArm
          {
            OFFSET 1.9872997282019604 0 0
            CHANNELS 3 Yrotation Xrotation Zrotation
            JOINT leftHand
            {
              OFFSET 2.6451820781302327 0 0
              CHANNELS 3 Yrotation Xrotation Zrotation
              JOINT leftLittleProximal
              {
                OFFSET 0.8008804099999995 -0.09592306899999814 -0.2618342639000001
                CHANNELS 3 Yrotation Xrotation Zrotation
                JOINT leftLittleIntermediate
                {
                  OFFSET 0.2473981400000007 -0.02542352681000093 0.0023609995859999455
                  CHANNELS 3 Yrotation Xrotation Zrotation
                  JOINT leftLittleDistal
                  {
                    OFFSET 0.1636846068000002 -0.015794634789999318 -0.00043272972159996703
                    CHANNELS 3 Yrotation Xrotation Zrotation
                    End Site
                    {
                      OFFSET 0.1636846068000002 -0.015794634789999318 -0.00043272972159996703
                    }
                  }
                }
              }
              JOINT leftRingProximal
              {
                OFFSET 0.8393409199999996 -0.062242267999998324 -0.0921281570000001
                CHANNELS 3 Yrotation Xrotation Zrotation
                JOINT leftRingIntermediate
                {
                  OFFSET 0.3284471036000003 -0.03264224524000103 0.009405970574000042
                  CHANNELS 3 Yrotation Xrotation Zrotation
                  JOINT leftRingDistal
                  {
                    OFFSET 0.1944779099999996 -0.021732211159998904 0.003073036670000001
                    CHANNELS 3 Yrotation Xrotation Zrotation
                    End Site
                    {
                      OFFSET 0.1944779099999996 -0.021732211159998904 0.003073036670000001
                    }
                  }
                }
              }
              JOINT leftMiddleProximal
              {
                OFFSET 0.8473005200000001 -0.06736028199999788 0.1054214809999999
                CHANNELS 3 Yrotation Xrotation Zrotation
                JOINT leftMiddleIntermediate
                {
                  OFFSET 0.3450455799999995 -0.024824261000000014 0.019013225990000007
                  CHANNELS 3 Yrotation Xrotation Zrotation
                  JOINT leftMiddleDistal
                  {
                    OFFSET 0.2354259489999998 -0.025005222000000327 0.0075590014499999705
                    CHANNELS 3 Yrotation Xrotation Zrotation
                    End Site
                    {
                      OFFSET 0.2354259489999998 -0.025005222000000327 0.0075590014499999705
                    }
                  }
                }
              }
              JOINT leftIndexProximal
              {
                OFFSET 0.8008594516999996 -0.09898495199999946 0.29463124239999994
                CHANNELS 3 Yrotation Xrotation Zrotation
                JOINT leftIndexIntermediate
                {
                  OFFSET 0.30524754480000016 -0.024632811499998963 0.02743047472
                  CHANNELS 3 Yrotation Xrotation Zrotation
                  JOINT leftIndexDistal
                  {
                    OFFSET 0.23067378950000017 -0.016876459159999913 0.008481502700000004
                    CHANNELS 3 Yrotation Xrotation Zrotation
                    End Site
                    {
                      OFFSET 0.23067378950000017 -0.016876459159999913 0.008481502700000004
                    }
                  }
                }
              }
              JOINT leftThumbProximal
              {
                OFFSET 0.25574326469999953 -0.12833321050000013 0.22385764169999997
                CHANNELS 3 Yrotation Xrotation Zrotation
                JOINT leftThumbIntermediate
                {
                  OFFSET 0.22804987480000094 -0.07138466829999968 0.273648441
                  CHANNELS 3 Yrotation Xrotation Zrotation
                  JOINT leftThumbDistal
                  {
                    OFFSET 0.13614857189999907 -0.033867001519998885 0.14238119169999996
                    CHANNELS 3 Yrotation Xrotation Zrotation
                    End Site
                    {
                      OFFSET 0.13614857189999907 -0.033867001519998885 0.14238119169999996
                    }
                  }
                }
              }
            }
          }
        }
      }
    }
  }
  JOINT rightUpperLeg
  {
    OFFSET -0.9749898906000001 -1.8495733739999998 0
    CHANNELS 3 Yrotation Xrotation Zrotation
    JOINT rightLowerLeg
    {
      OFFSET 0 -4.1566544686813165 0
      CHANNELS 3 Yrotation Xrotation Zrotation
      JOINT rightFoot
      {
        OFFSET 0.14539718599999998 -4.225553926 -0.3666210900000001
        CHANNELS 3 Yrotation Xrotation Zrotation
        JOINT rightToes
        {
          OFFSET 0.1706738473 -0.9584117400000015 1.0093348617
          CHANNELS 3 Yrotation Xrotation Zrotation
          End Site
          {
            OFFSET 0.1706738473 -0.9584117400000015 1.0093348617
          }
        }
      }
    }
  }
  JOINT leftUpperLeg
  {
    OFFSET 0.9749898906000001 -1.8495733739999998 0
    CHANNELS 3 Yrotation Xrotation Zrotation
    JOINT leftLowerLeg
    {
      OFFSET 0 -4.156653488267941 0
      CHANNELS 3 Yrotation Xrotation Zrotation
      JOINT leftFoot
      {
        OFFSET -0.14537357999999995 -4.225555399999999 -0.36661124279999996
        CHANNELS 3 Yrotation Xrotation Zrotation
        JOINT leftToes
        {
          OFFSET -0.17066467000000002 -0.9584157000000019 1.0093348617
          CHANNELS 3 Yrotation Xrotation Zrotation
          End Site
          {
            OFFSET -0.17066467000000002 -0.9584157000000019 1.0093348617
          }
        }
      }
    }
  }
}
MOTION
Frames: 4
Frame Time: 0.03333333333333333
0.35878807306289673 -0.2279966347973641 -0.06378259509801865 13.863328748565467 2.310752370737002 -3.0997248194764113 8.330176586623748 1.521558436703368 6.982855755170386 7.2119243076684745 -2.8159821462306986 2.4025285458361245 1.2746472626687535 -2.8585238359203164 -2.2967302286318834 16.792298523397104 -2.1090504156111636 -7.416491445547273 0 0 0 0 0 0 0 0 0 -2.9295911027512664 7.036515273100282 -2.2024071614272964 -9.928941581606887 -19.211054259293356 70.19798104181122 118.72563292099503 1.0958868936768213 -0.6489911700952384 14.545066341510791 31.29419141622577 -4.377783029823394 -17.754923200624372 9.651521368204152 94.2959455054067 -5.388535430850881 5.635121699096914 104.42811951648011 -5.319699241898794 1.4707297286753582 80.95583774726724 -10.774959560804522 7.499285699657256 85.4472350668661 -4.609767518583054 6.3176180529759405 99.18115244824433 -4.003478013011137 2.569173579724666 76.61203087790123 -10.655735738401015 5.315758917669921 78.3977214772924 -5.853148628394602 5.398344445018575 96.03040901483419 -5.045143350671211 3.9972058753730892 78.46959581683518 -8.721503453948113 4.616070270751377 78.50409767786303 -5.820353514130166 5.166544250724895 91.23816009333838 -4.990865797431772 3.3445907379720876 84.50525954039317 4.7245594691789465 32.03259249181758 -19.606587810044907 -31.73821194300995 0.8893872313356583 3.166387350992247 -7.698776868394432 1.6458770794338662 1.1069033241758388 -4.753976179224762 3.646844209400061 -2.854175401442255 1.0406630701144475 13.361271182261715 -68.26147130114796 -121.93197640724408 1.1314871223635332 0.6282929810631661 -9.828009279026919 -6.334857413709163 9.07165385928366 17.71089465703801 8.5891444330727 -79.36544125671094 5.088880899865819 4.6876773671318945 -89.4829969211152 5.054681880711653 3.359779960589548 -64.41343881387625 11.349712357485584 6.488170556045337 -70.42080591497951 4.776818047479902 5.034253681046027 -84.31627396380865 4.081287606583988 3.239640290295627 -63.20141174138892 10.623819390226226 4.234756289416402 -63.421677209221976 5.84898641836652 4.146873324185719 -81.15439815295557 4.507386823196228 2.635198881970945 -59.90790345279233 8.561473057132915 3.547879327076105 -68.6998962093915 5.789035093256389 4.32115344102253 -81.41204506977121 4.7162309836444765 3.2004875933391745 -71.02274058686994 -4.804559063169688 30.91678706112164 15.35186885047813 31.852920245455437 0.9234715263004363 -3.123027407569836 8.67154947952671 1.805813781749074 -0.2995684717299781 -3.5951870351906585 -12.020865019227035 1.0911593734721041 -9.779596492057005 17.361987612776 1.7533031846049554 -11.500791951609818 -7.342889352305583 0.32213977240709524 0.0000014351274845941686 -1.8215221215336976 -0.0000010175126689948315 13.90927847783667 -21.181513951101493 -0.2676039451334895 -10.263176208934839 17.026507768783254 -2.706218264316927 -5.948853586731262 1.4339595451193958 1.874980500410714 0.00000892154232675181 0.35015182737594214 8.683758197716108e-7
0.36141833662986755 -0.32813625271728597 -0.12557433545589447 14.218045585388994 1.5625718217631888 -2.7888994736951886 8.530882080792292 2.6277965425083587 7.548090920649601 7.227349259422777 -2.979061674539467 1.761712250139265 1.3277402247501806 -2.9188350586447096 -2.4012276131184684 17.046882926468527 -2.6885951542733433 -7.28313092242638 0 0 0 0 0 0 0 0 0 -1.501756988891496 6.360418581600573 -0.17970967872732058 -9.840291750701244 -17.53254134277347 67.92312679231584 114.36234833934003 1.0454630747461398 -0.6741928536551048 15.978175121866698 32.63116324365021 -10.827140516686212 -17.754909540928466 9.65150144947474 94.2959246918603 -5.388563085223119 5.635128562454014 104.42812034734179 -5.3196848939592645 1.47071819893289 80.95585569003657 -10.77504994031341 7.499943610665334 85.44715815222825 -4.6097636656313 6.317623636411951 99.18115190001467 -4.003492318712494 2.56917721191363 76.61203919197766 -10.655903284043113 5.316537493085575 78.39763955673229 -5.853153747032619 5.398340585920859 96.03038897329013 -5.04513951424238 3.997193893395379 78.46963141306757 -8.721239628035676 4.614625697264557 78.50425226196937 -5.820359136253564 5.1665292487354355 91.23815019613149 -4.9908896530902815 3.344594800316246 84.50527817092227 4.7235962080536265 32.032455525015806 -19.607342293288 -31.73821194300995 0.8893872313356583 3.166387350992247 -7.698776868394432 1.6458770794338662 1.1069033241758388 -5.090341149499641 2.889200511501809 -5.9715450335736895 2.5610201684876754 14.09078024382377 -65.59901903964995 -116.40387534502193 1.0691703224230436 0.6630637491479335 -15.318111568811252 -7.920163022347505 8.58066228059215 17.710503304794564 8.587311317045708 -79.36565710226425 5.088883033022113 4.6876790804101285 -89.48299695203397 5.0546751899196884 3.359756441390074 -64.41344800503904 11.348993498882287 6.486519028091533 -70.42107224638228 4.776806797838595 5.034053981458841 -84.31398087778824 4.081279076867287 3.2396300286127793 -63.20142856506634 10.623650257572827 4.2344660678610335 -63.421710906247114 5.848966288348266 4.146732509775318 -81.15283022568582 4.507377450820924 2.6351982409628527 -59.907895822804306 8.55996848612358 3.5489575759195486 -68.6999578044718 5.789025723006666 4.3211547253338045 -81.41204506977121 4.7162368042537866 3.2005017026108193 -71.022748168212 -4.806646355356539 30.91682288737281 15.35038220613162 31.852920245455437 0.9234715263004363 -3.123027407569836 8.67154947952671 1.805813781749074 -0.2995684717299781 -4.195392492806016 -14.507000656750572 0.934993614835177 -10.43485144626344 23.133441272619173 -0.028711243879401514 -10.78475004958058 -9.738248321923802 1.5971081674283736 0.000003989910104155376 -2.9353675434942343 -9.95958229911151e-7 12.442047542863655 -23.071334642981203 -1.0739897898214972 -10.748438270073843 21.942100297282682 -2.4236614597846122 -4.387367954953164 -0.7050071312402895 1.8306418675065095 -0.000007705472318598327 0.39266043042693577 -2.2892602834978593e-7
0.3559970557689667 -0.4411132806103524 -0.20413875579833984 14.612581449325798 0.554209391017808 -2.5554980180323104 8.365016503911624 4.098712829336435 8.173474601074314 6.929923874840962 -2.850496300564641 1.2173678038408415 1.395033215828174 -2.930865887511262 -2.425387860931515 17.789273981672903 -3.4735650733434302 -7.452340203304706 0 0 0 0 0 0 0 0 0 0.1290772842867307 5.6168491560326865 1.6232587776639915 -10.21065742117431 -15.687005660838848 66.25329472174484 107.86496548111583 0.9672305014336838 -0.7044122564507069 14.572981663951113 32.684220537957884 -12.638918659915557 -17.75490564860544 9.651539554871166 94.29592244773549 -5.388537993235806 5.635136712690674 104.42813117273704 -5.31969127178288 1.4707195867722578 80.95583774726724 -10.775150067647777 7.50065577461836 85.44707983207309 -4.609762961381613 6.317608174589299 99.18115244824433 -4.00347716046392 2.569167169979462 76.61203919197766 -10.656167564983317 5.317714790160073 78.3975201103499 -5.853149908054116 5.398338013189062 96.03035827134741 -5.045145055750677 3.9971930375398355 78.46961327280206 -8.720954387217896 4.612935725609158 78.50442726000531 -5.820338668161848 5.166533535018102 91.23814023285118 -4.990872187340471 3.3445905241645004 84.50526890469916 4.722301767656154 32.032298416289564 -19.608301646632054 -31.73821194300995 0.8893872313356583 3.166387350992247 -7.698776868394432 1.6458770794338662 1.1069033241758388 -5.505452054131784 2.3713897494296563 -8.483370384205058 3.8148057584779105 13.7185728350693 -63.904414447404484 -110.89385593703791 1.0040026375495625 0.6916156549355077 -16.813300216237693 -14.478122374120993 8.163823015333485 17.71012228292515 8.585501523005428 -79.36589840431493 5.088883033022113 4.687677795451453 -89.48297762490171 5.054674338002071 3.359769056233357 -64.41345565345536 11.348278857375602 6.484842157041424 -70.42138967193154 4.776824587687025 5.033855139012347 -84.3117161904687 4.081284621183164 3.239636442164547 -63.20141174138892 10.6235259322496 4.2341595803189565 -63.4217369459638 5.8489333081209205 4.146625079953253 -81.15124432912405 4.507367652428301 2.6351867028172506 -59.907888192816394 8.558495718703176 3.5500289827007223 -68.7000114298702 5.78903927198909 4.321165427927845 -81.4120535358468 4.716209678342119 3.200500633726597 -71.02274928051077 -4.808982577693613 30.91687065572858 15.348709308640489 31.852920245455437 0.9234715263004363 -3.123027407569836 8.67154947952671 1.805813781749074 -0.2995684717299781 -5.129282128367669 -16.495817511620672 0.8022117735630611 -11.051405638832431 28.292996153911833 -1.6494355252395112 -9.917583578227479 -11.829468413520283 2.5385635630256886 -4.752572202714406e-7 -2.9384216612104694 -8.48899041867715e-8 10.18383615527347 -24.671488675959278 -1.9283471054234695 -11.114281138246984 26.590738690424608 -1.577091327313135 -1.8883435630759302 -2.618934262338214 1.1733727708519626 -0.0000010309410205134412 0.4024720466201028 1.3164745006270204e-7
0.3478902578353882 -0.49769191677978597 -0.24116435647010803 14.589513790296754 0.1367941314594174 -2.679586650817909 8.27938178758519 4.7149892702297995 8.505197101924557 6.802666327739634 -2.631865644351498 1.1799228676690579 1.410722711429009 -2.972487076393809 -2.393827994762069 18.134185812992694 -4.044185565967671 -7.689809554880846 0 0 0 0 0 0 0 0 0 0.8506965251636369 5.322134604701359 2.375306195139055 -10.686128338132816 -14.987500284405085 65.46132991286305 105.29152766139515 0.9353464119766007 -0.7139037028208095 13.603765866302627 31.35323890798399 -11.084404448850117 -17.75489799397509 9.651530028521655 94.29591208455165 -5.388543545069732 5.6351238438959985 104.42811949228688 -5.319700942651794 1.4707310097578583 80.95585569003657 -10.775203313299041 7.501040705317604 85.44702079139782 -4.609759384573748 6.317633944293975 99.18116317229979 -4.003482702020809 2.569180630444429 76.61203087790123 -10.6562967564666 5.318327019827232 78.39747172622975 -5.853134202320503 5.398335011668646 96.0303685053287 -5.04513738289301 3.997194749250924 78.46962165863593 -8.720826583597695 4.612064616600518 78.50451415416751 -5.82036033682762 5.166543822096621 91.23815994514761 -4.99087261333438 3.34461104969305 84.5052684790489 4.721525664905015 32.03221381939477 -19.60887454381053 -31.73821194300995 0.8893872313356583 3.166387350992247 -7.698776868394432 1.6458770794338662 1.1069033241758388 -5.6969146335872445 2.2791369608340197 -9.167576688136368 4.2372232189036225 13.270480934794262 -63.67831651457148 -109.44994082918221 0.9864801319490637 0.6980380649721344 -14.724871803026 -17.02670956665551 7.302537516028289 17.709913746852386 8.584594038880203 -79.36597184699569 5.08888900585966 4.687676082173223 -89.4829969211152 5.0546670967022305 3.359776967236856 -64.41343881387625 11.347945299583891 6.484027568352385 -70.42151925547637 4.776819033647665 5.03374543286099 -84.31053297571184 4.081290165498963 3.239647558987708 -63.20141019921 10.623435055261655 4.234014897694619 -63.421747669336014 5.848930481362423 4.146551462713099 -81.15046887993358 4.507352899181154 2.635184779792994 -59.907895822804306 8.557744698980075 3.5505574155249198 -68.70005144028696 5.789041827511803 4.32116114689021 -81.4120357570885 4.716232688068609 3.200488876000225 -71.02274058686994 -4.810192511582032 30.916898520613792 15.347844360735781 31.852920245455437 0.9234715263004363 -3.123027407569836 8.67154947952671 1.805813781749074 -0.2995684717299781 -5.409272307396399 -17.349747276363125 1.0025339120326626 -11.40177554743915 30.403188357763767 -2.3569833425682702 -9.492271083595229 -12.663713871962525 2.829941166869145 0.0000025695189801968076 -2.9392410809190896 -0.0000014061270897831811 9.275865925759893 -25.581379902630076 -1.9415235181528827 -11.332829991997482 28.798532933048545 -1.4589530457788416 -0.8122482335975293 -3.50421151576568 0.8854292079922984 -0.0000061899640999044604 0.4122565666008901 -0.0000010933997813690683
